<svg width="128" height="128" viewBox="0 0 128 128" fill="none" xmlns="http://www.w3.org/2000/svg">
    <g clip-path="url(#clip0_2167_4940)">
        <path
            d="M0 127.874L0.405333 122.274C0.810667 116.407 3.312 86.6042 12.7093 77.2016C17.7682 72.2635 24.57 69.519 31.6393 69.5635C38.7086 69.6079 45.4753 72.4377 50.4717 77.439C55.468 82.4403 58.2912 89.2098 58.3287 96.2791C58.3662 103.348 55.615 110.148 50.672 115.202C41.2747 124.599 11.4773 127.095 5.59467 127.5L0 127.874ZM123.072 4.63088C119.959 1.65854 115.821 0 111.517 0C107.214 0 103.075 1.65854 99.9627 4.63088L43.8827 60.7322C49.245 62.5568 54.1193 65.5833 58.1329 69.5802C62.1465 73.5772 65.1931 78.4388 67.04 83.7935L123.072 27.7349C126.131 24.6685 127.849 20.5141 127.849 16.1829C127.849 11.8517 126.131 7.6973 123.072 4.63088Z"
            fill="#311903" />
    </g>
    <defs>
        <clipPath id="clip0_2167_4940">
            <rect width="128" height="128" fill="#311903" />
        </clipPath>
    </defs>
</svg>
    