<svg width="256" height="256" viewBox="0 0 256 256" fill="none" xmlns="http://www.w3.org/2000/svg">
<mask id="mask0_2800_5809" style="mask-type:alpha" maskUnits="userSpaceOnUse" x="3" y="8" width="250" height="240">
<path d="M241.679 162.94C245.943 165.618 250.066 169.609 251.534 175.067V8.39258H4.03064L4.03064 177.83C4.92254 174.606 7.02611 171.666 9.42109 168.972C8.84713 166.583 8.8135 163.984 9.72556 161.21C11.1159 156.982 14.3849 153.439 18.3373 150.151C22.2581 146.889 27.976 145.327 32.1161 144.59C34.3568 144.191 36.5533 143.963 38.4452 143.905C38.9762 143.888 39.5093 143.884 40.0328 143.897C43.307 141.605 46.7481 139.666 50.6594 138.937C55.0612 138.116 59.1786 138.955 63.3405 140.626C68.1973 137.441 73.8527 136.043 79.7475 136.826C85.4176 137.579 90.7543 140.269 95.4588 144.431C101.853 141.621 108.614 141.478 114.111 143.027C117.617 144.016 121.024 145.812 123.479 148.507C123.519 148.552 123.559 148.596 123.599 148.641C125.404 147.925 127.227 147.391 129.13 147.086C133.294 146.419 137.209 146.949 141.372 148C145.548 145.083 150.224 143.293 155.378 143.018C160.012 142.771 164.593 143.771 169.075 145.732C172.597 142.622 176.35 140.472 180.748 139.672C185.476 138.811 190.103 139.694 194.607 141.09C198.264 139.388 202.029 138.787 206.078 139.693C209.653 140.492 212.96 142.415 215.974 144.421C219.013 144.32 222.61 144.86 225.721 147.671C228.622 150.291 230.21 154.206 231.384 158.447C235.038 159.496 238.585 160.997 241.679 162.94Z" fill="black"/>
<path d="M20.3219 205.423C18.4303 204.051 17.0879 202.657 15.7277 200.993C14.2404 200.224 12.3808 199.129 10.8263 197.49C8.95415 195.515 7.85683 193.183 7.17843 190.567C5.76996 188.81 4.63816 186.875 4.03064 184.756V247.552L130.674 247.579C128.435 247.463 126.316 247.009 124.304 246.468C121.538 247.122 118.928 247.583 116.303 247.552C113.09 247.513 110.321 246.755 107.44 245.591C103.578 246.577 99.6926 246.776 95.8401 246.063C91.8617 245.326 88.2261 243.676 84.9186 241.351C80.0546 241.629 75.512 241.502 71.4485 240.187C67.6213 238.948 64.6634 236.825 62.2103 233.996C61.2779 234.082 60.3882 234.142 59.5447 234.167C57.5387 234.227 55.3536 234.115 53.2379 233.449C49.6538 232.322 47.5288 230.06 46.1595 227.651C43.3142 227.473 40.3585 226.89 37.5832 225.567C33.7402 223.735 30.7768 220.741 28.9208 216.665C26.9615 215.678 24.971 214.35 23.3757 212.374C21.678 210.271 20.7823 207.9 20.3219 205.423Z" fill="black"/>
<path d="M140.269 245.843C137.791 246.846 135.375 247.447 132.837 247.579L251.534 247.605L250.988 189.405C249.298 193.476 246.206 196.829 241.751 199.199C241.58 200.069 241.317 200.915 240.968 201.733C239.886 204.265 238.138 206.131 236.471 207.455C234.859 208.735 233.092 209.69 231.485 210.392C230.612 213.066 229.106 215.79 226.226 218.024C223.049 220.487 218.844 221.821 213.86 222.69C212.335 224.944 210.533 226.971 208.165 228.516C205.582 230.203 202.805 231.008 199.955 231.39C197.853 233.419 195.457 235.114 192.43 236.167C189.5 237.186 186.434 237.44 183.226 237.326C181.203 238.939 179.029 240.229 176.418 241.09C172.983 242.223 169.345 242.417 165.416 242.415C161.752 244.883 157.947 246.533 153.504 247.063C149.243 247.572 144.906 246.98 140.269 245.843Z" fill="black"/>
<path d="M20.2329 195.686C16.6012 193.885 14.5568 192.871 13.576 187.522C8.1287 181.697 10.1057 177.832 17.3786 170.494C14.6056 165.399 15.487 161.368 22.8322 155.258C27.7762 151.145 39.5875 150.011 41.9606 150.889C47.3246 146.866 50.8958 144.957 55.3543 145.405C56.0551 145.475 56.7778 145.603 57.5327 145.791C59.0469 146.167 60.6911 146.781 62.5492 147.64C60.5722 149.193 59.7733 151.357 59.4418 153.647C59.2792 154.77 59.229 155.924 59.2075 157.05C59.4412 155.416 61.2058 151.744 63.7411 149.074C63.9162 148.89 64.0948 148.71 64.277 148.536C66.4086 146.502 68.7595 145.058 71.2381 144.215C78.5778 141.72 87.0372 144.504 94.2377 152.905C102.36 146.968 112.335 148.135 117.136 151.889C119.313 153.591 120.426 155.826 119.819 158.171C122.447 156.592 124.645 155.444 126.684 154.682C128.982 153.824 131.08 153.457 133.368 153.518C133.975 153.535 134.595 153.581 135.236 153.656C136.904 153.852 138.713 154.243 140.791 154.81C139.02 157.114 138.159 158.91 137.58 160.933C137.206 162.242 136.95 163.645 136.643 165.34C137.027 164.55 137.366 163.821 137.683 163.137L137.684 163.137C138.004 162.447 138.302 161.805 138.603 161.195C138.85 160.697 139.099 160.221 139.363 159.758C140.121 158.436 141.01 157.226 142.353 155.945C142.552 155.755 142.76 155.564 142.98 155.37C145.541 153.116 148.214 151.526 151.01 150.615C156.894 148.698 163.324 149.787 170.405 154.026C178.912 144.61 184.575 144.65 195.295 148.424C202.384 143.918 206.566 146.143 214.078 151.337C218.458 150.737 220.985 151.267 222.997 155.415C223.221 155.878 223.439 156.385 223.652 156.941C224.207 158.386 224.73 160.157 225.255 162.316C222.287 161.974 220.009 162.121 218.176 162.484C216.207 162.873 214.75 163.511 213.502 164.058C212.542 164.479 211.705 164.845 210.851 165.004C211.937 164.812 212.911 164.628 213.804 164.459C215.597 164.119 217.069 163.841 218.482 163.68C218.933 163.629 219.378 163.59 219.825 163.564C221.412 163.475 223.031 163.559 225.062 163.901C225.239 163.931 225.418 163.962 225.601 163.996C228.262 164.485 230.89 165.244 233.315 166.24C239.039 168.589 243.63 172.251 244.845 176.767C246.573 183.197 245.742 191.319 234.82 194.803C236.584 201.517 228.868 204.436 225.601 205.334C224.488 211.892 222.221 214.871 209.584 216.536C206.112 222.739 203.297 224.599 196.678 224.938C192.286 229.934 188.831 231.179 180.776 230.428C179.055 232.067 177.546 233.215 175.937 234.012C175.166 234.393 174.371 234.694 173.52 234.929C171.352 235.527 168.813 235.698 165.335 235.693C168.176 233.524 169.882 231.577 170.711 228.667C171.107 227.276 171.303 225.666 171.327 223.706C170.619 225.753 169.963 227.411 169.215 228.849C168.207 230.786 167.032 232.324 165.338 233.879C165.065 234.129 164.779 234.379 164.478 234.632C164.064 234.98 163.621 235.332 163.146 235.693C158.013 239.59 153.757 240.964 147.967 240.408C145.524 240.173 142.808 239.595 139.639 238.718C133.599 241.727 130.294 241.225 124.428 239.502C122.461 240.004 120.838 240.374 119.401 240.594C118.716 240.699 118.072 240.77 117.454 240.806C114.815 240.957 112.631 240.456 109.563 239.166C111.882 238.347 114.341 236.465 115.896 234.078C116.258 233.521 116.572 232.937 116.823 232.332C116.604 232.532 116.386 232.733 116.167 232.934L116.167 232.934C115.801 233.27 115.435 233.607 115.062 233.941C113.688 235.173 112.222 236.366 110.376 237.34C109.973 237.553 109.551 237.755 109.107 237.945C108.845 238.058 108.574 238.166 108.296 238.269C102.635 240.374 97.4379 240.236 92.5953 238.007C90.7096 237.139 88.8778 235.954 87.0934 234.461C75.3699 235.405 70.1418 234.319 65.4299 226.843C62.1489 227.297 59.692 227.53 57.8038 227.441C56.7033 227.389 55.7959 227.228 55.0312 226.938C53.1722 226.233 52.1561 224.765 51.2565 222.25C52.8512 222.351 54.6441 221.604 56.2137 220.574C57.6694 219.619 58.933 218.421 59.6684 217.433C57.8884 218.595 54.8368 220.367 51.3525 220.825C51.0923 220.86 50.8298 220.887 50.5651 220.905C48.0018 221.087 45.5281 221.003 43.2986 220.465C39.1945 219.475 35.9178 216.948 34.4328 211.719C29.2643 209.677 27.1531 207.838 26.8276 201.525C23.5834 199.722 22.3035 198.337 20.2594 195.699L20.2329 195.686Z" fill="black"/>
</mask>
<g mask="url(#mask0_2800_5809)">
<path d="M72.456 111.457L77.0646 147.53C77.0646 147.53 68.7633 150.344 63.2369 151.227C57.5892 152.129 47.2198 152.235 47.2198 152.235C43.8192 116.488 41.4183 80.941 38.2324 44.5777L69.6578 36.4974L68.8799 38.7661C75.8806 33.4725 85.2149 31.9601 85.2149 31.9601C85.2149 31.9601 83.3506 34.4051 83.6592 34.2288C96.8042 32.0731 104.088 30.2071 116.935 25.5332C119.764 39.1034 120.797 46.9082 121.66 61.1576C100.651 65.888 88.8833 68.3716 67.962 71.9121L69.8057 87.5958C80.9558 85.8563 87.6092 84.4457 100.111 81.8824C103.127 89.5364 103.363 94.9541 102.762 105.408C90.8723 107.985 84.2717 109.349 72.456 111.457Z" fill="url(#paint0_linear_2800_5809)"/>
<path d="M207.344 117.41C192.564 124.216 174.674 125.729 174.674 125.729C187.897 102.286 210.738 72.037 210.738 41.998L172.34 43.3004L173.896 45.5691C165.339 41.0318 154.449 43.3005 154.449 43.3005L156.005 45.5691L138.114 49.9825C135.095 59.833 134.258 66.757 133.447 80.2315C151.338 73.5494 172.34 72.037 172.34 72.037C172.34 87.9177 135.146 120.435 135.146 155.817H141.714L168.563 154.024L193.799 151.112C193.799 151.112 204.016 148.393 206.244 141.477C208.471 134.562 208.808 118.672 207.344 117.41Z" fill="url(#paint1_linear_2800_5809)"/>
<path d="M94.2346 152.903C106.041 144.273 121.76 150.653 119.816 158.169C128.237 153.11 132.23 152.474 140.788 154.808C137.871 158.602 137.423 161.02 136.64 165.338C138.77 160.965 139.487 158.44 142.977 155.368C150.928 148.372 159.956 147.771 170.402 154.024C178.909 144.608 184.571 144.648 195.292 148.422C202.381 143.916 206.563 146.141 214.075 151.335C220.212 150.495 222.711 151.871 225.252 162.314C216.643 161.323 213.846 164.444 210.848 165.002C217.484 163.827 219.924 162.951 225.598 163.994C234.539 165.637 243.113 170.335 244.842 176.765C246.57 183.195 245.739 191.317 234.816 194.801C236.581 201.515 228.865 204.434 225.598 205.332C224.485 211.89 222.218 214.869 209.581 216.534C206.109 222.737 203.294 224.597 196.675 224.936C192.283 229.932 188.828 231.177 180.773 230.426C176.124 234.853 173.023 235.702 165.332 235.691C169.53 232.485 171.249 229.767 171.324 223.704C169.299 229.563 167.697 232.233 163.143 235.691C155.845 241.233 150.319 241.672 139.636 238.716C133.596 241.725 130.29 241.223 124.425 239.5C117.514 241.265 114.852 241.39 109.56 239.164C112.42 238.154 115.493 235.527 116.82 232.33C114.415 234.522 112.119 236.845 108.293 238.268C100.428 241.192 93.4574 239.787 87.0902 234.459C75.3668 235.403 70.1387 234.317 65.4268 226.841C55.5846 228.203 53.158 227.574 51.2534 222.248C54.3271 222.443 58.1368 219.486 59.6653 217.431C57.7523 218.68 54.3708 220.633 50.562 220.903C43.2802 221.42 36.7214 219.787 34.4297 211.717C29.2611 209.675 27.1499 207.836 26.8244 201.523C23.5802 199.72 22.3003 198.335 20.2563 195.697L20.2298 195.684C16.598 193.883 14.5536 192.869 13.5729 187.52C8.12556 181.695 10.1026 177.83 17.3755 170.492C14.6025 165.397 15.4839 161.366 22.8291 155.256C27.7731 151.143 39.5843 150.009 41.9575 150.887C49.8553 144.963 53.8667 143.625 62.546 147.638C59.5994 149.953 59.2699 153.624 59.2043 157.048C59.4542 155.301 61.4536 151.226 64.2738 148.534C72.7176 140.477 84.6025 141.666 94.2346 152.903Z" fill="url(#paint2_radial_2800_5809)"/>
</g>
<defs>
<linearGradient id="paint0_linear_2800_5809" x1="79.946" y1="25.5332" x2="79.946" y2="152.235" gradientUnits="userSpaceOnUse">
<stop stop-color="#F79A08"/>
<stop offset="1" stop-color="#E15100"/>
</linearGradient>
<linearGradient id="paint1_linear_2800_5809" x1="172.093" y1="41.998" x2="172.093" y2="155.817" gradientUnits="userSpaceOnUse">
<stop stop-color="#F79A08"/>
<stop offset="1" stop-color="#E15100"/>
</linearGradient>
<radialGradient id="paint2_radial_2800_5809" cx="0" cy="0" r="1" gradientUnits="userSpaceOnUse" gradientTransform="translate(127.989 148.535) rotate(89.993) scale(92.3484 140.232)">
<stop stop-color="#F4F4F4"/>
<stop offset="0.442708" stop-color="#F4F4F4"/>
<stop offset="0.78125" stop-color="#E1F5F8"/>
<stop offset="1" stop-color="#97D6DF"/>
</radialGradient>
</defs>
</svg>