<svg xmlns="http://www.w3.org/2000/svg" width="32" height="32" viewBox="0 0 32 32" fill="none">
    <path
        d="M15.525 2.11983C15.6709 2.04118 15.834 2 15.9997 2C16.1654 2 16.3285 2.04118 16.4744 2.11983L29.4744 9.11983C29.6331 9.20552 29.7657 9.33255 29.8582 9.48747C29.9506 9.6424 29.9994 9.81944 29.9994 9.99983C29.9994 10.1802 29.9506 10.3573 29.8582 10.5122C29.7657 10.6671 29.6331 10.7941 29.4744 10.8798L16.4744 17.8798C16.3285 17.9585 16.1654 17.9997 15.9997 17.9997C15.834 17.9997 15.6709 17.9585 15.525 17.8798L2.52503 10.8798C2.36627 10.7941 2.23366 10.6671 2.14123 10.5122C2.0488 10.3573 2 10.1802 2 9.99983C2 9.81944 2.0488 9.6424 2.14123 9.48747C2.23366 9.33255 2.36627 9.20552 2.52503 9.11983L15.525 2.11983Z"
        fill="#DCDCDC" />
    <path
        d="M4.35169 14.1361L14.5757 19.6414C15.0129 19.8769 15.5018 20.0002 15.9984 20.0002C16.495 20.0002 16.9838 19.8769 17.421 19.6414L27.645 14.1348L29.4717 15.1201C29.6304 15.2058 29.7631 15.3328 29.8555 15.4877C29.9479 15.6427 29.9967 15.8197 29.9967 16.0001C29.9967 16.1805 29.9479 16.3575 29.8555 16.5125C29.7631 16.6674 29.6304 16.7944 29.4717 16.8801L16.4717 23.8801C16.3262 23.9583 16.1636 23.9992 15.9984 23.9992C15.8332 23.9992 15.6705 23.9583 15.525 23.8801L2.52503 16.8801C2.36628 16.7944 2.23366 16.6674 2.14123 16.5125C2.0488 16.3575 2 16.1805 2 16.0001C2 15.8197 2.0488 15.6427 2.14123 15.4877C2.23366 15.3328 2.36628 15.2058 2.52503 15.1201L4.35169 14.1361Z"
        fill="#DCDCDC" />
    <path
        d="M14.5757 25.6414L4.35169 20.1348L2.52503 21.1201C2.36628 21.2058 2.23366 21.3328 2.14123 21.4877C2.0488 21.6427 2 21.8197 2 22.0001C2 22.1805 2.0488 22.3575 2.14123 22.5125C2.23366 22.6674 2.36628 22.7944 2.52503 22.8801L15.525 29.8801C15.8197 30.0401 16.177 30.0401 16.4717 29.8801L29.4717 22.8801C29.6304 22.7944 29.7631 22.6674 29.8555 22.5125C29.9479 22.3575 29.9967 22.1805 29.9967 22.0001C29.9967 21.8197 29.9479 21.6427 29.8555 21.4877C29.7631 21.3328 29.6304 21.2058 29.4717 21.1201L27.645 20.1361L17.421 25.6428C16.9837 25.8781 16.4948 26.0011 15.9982 26.0009C15.5016 26.0006 15.0128 25.8771 14.5757 25.6414Z"
        fill="white" />
</svg>