<svg width="24" height="24" viewBox="0 0 24 24" fill="none" xmlns="http://www.w3.org/2000/svg">
<g clip-path="url(#clip0_3951_6275)">
<mask id="path-1-inside-1_3951_6275" fill="white">
<path d="M22.5 10.6152H1.5C0.671573 10.6152 0 11.2868 0 12.1152C0 12.9437 0.671573 13.6152 1.5 13.6152H22.5C23.3284 13.6152 24 12.9437 24 12.1152C24 11.2868 23.3284 10.6152 22.5 10.6152Z"/>
</mask>
<path d="M1.5 15.6152H22.5V5.61523L1.5 5.61523L1.5 15.6152ZM22.5 8.61523H1.5L1.5 18.6152H22.5V8.61523ZM1.5 8.61523C3.433 8.61523 5 10.1822 5 12.1152H-5C-5 15.7051 -2.08985 18.6152 1.5 18.6152L1.5 8.61523ZM22.5 18.6152C26.0899 18.6152 29 15.7051 29 12.1152H19C19 10.1822 20.567 8.61523 22.5 8.61523V18.6152ZM22.5 15.6152C20.567 15.6152 19 14.0482 19 12.1152H29C29 8.52539 26.0899 5.61523 22.5 5.61523V15.6152ZM1.5 5.61523C-2.08985 5.61523 -5 8.52538 -5 12.1152H5C5 14.0482 3.433 15.6152 1.5 15.6152L1.5 5.61523Z" fill="#F5F5F5" mask="url(#path-1-inside-1_3951_6275)"/>
</g>
<defs>
<clipPath id="clip0_3951_6275">
<rect width="24" height="24" fill="white"/>
</clipPath>
</defs>
</svg>
