<svg width="24" height="24" viewBox="0 0 24 24" fill="none" xmlns="http://www.w3.org/2000/svg">
<path d="M9.87911 12L0.439471 2.56137C-0.14649 1.97541 -0.14649 1.02538 0.439471 0.439471C1.02543 -0.14649 1.97546 -0.14649 2.56137 0.439471L12 9.87906L21.4386 0.439471C22.0246 -0.14649 22.9746 -0.14649 23.5605 0.439471C24.1464 1.02543 24.1465 1.97546 23.5605 2.56137L14.1209 12L23.5605 21.4386C24.1465 22.0246 24.1465 22.9746 23.5605 23.5605C22.9746 24.1464 22.0245 24.1465 21.4386 23.5605L12 14.1209L2.56142 23.5605C1.97546 24.1465 1.02543 24.1465 0.439516 23.5605C-0.146444 22.9746 -0.146444 22.0245 0.439516 21.4386L9.87911 12Z" fill="#F5F5F5"/>
</svg>
