<svg width="60" height="60" viewBox="0 0 60 60" fill="none" xmlns="http://www.w3.org/2000/svg">
<mask id="mask0_1034_3381" style="mask-type:alpha" maskUnits="userSpaceOnUse" x="0" y="0" width="60" height="60">
<path d="M57.4019 38.6637C58.4297 39.3276 59.4237 40.3171 59.7774 41.6705V0.344727H0.11755L0.11755 42.3554C0.332541 41.556 0.8396 40.8271 1.4169 40.1591C1.27855 39.5669 1.27044 38.9223 1.49029 38.2346C1.82542 37.1862 2.61341 36.3078 3.56613 35.4926C4.51122 34.6839 5.8895 34.2964 6.88745 34.1138C7.42758 34.015 7.95703 33.9584 8.41308 33.9439C8.54106 33.9398 8.66956 33.9388 8.79576 33.9419C9.585 33.3738 10.4145 32.893 11.3573 32.7122C12.4183 32.5086 13.4108 32.7166 14.414 33.1311C15.5847 32.3413 16.9479 31.9946 18.3688 32.1887C19.7356 32.3754 21.022 33.0425 22.156 34.0744C23.6972 33.3776 25.327 33.3421 26.652 33.7264C27.4973 33.9716 28.3183 34.4169 28.9101 35.0851C28.9198 35.0961 28.9295 35.1072 28.9392 35.1183C29.3741 34.9407 29.8135 34.8082 30.2724 34.7327C31.2761 34.5674 32.2197 34.6987 33.2233 34.9593C34.2299 34.236 35.357 33.7922 36.5994 33.724C37.7162 33.6627 38.8206 33.9108 39.9009 34.3969C40.7499 33.6259 41.6545 33.0929 42.7146 32.8944C43.8545 32.681 44.9696 32.8999 46.0553 33.2461C46.9369 32.8241 47.8445 32.675 48.8205 32.8996C49.6822 33.0978 50.4794 33.5746 51.2058 34.0719C51.9385 34.0469 52.8053 34.1808 53.5554 34.8778C54.2545 35.5274 54.6374 36.498 54.9203 37.5495C55.8012 37.8095 56.6561 38.1819 57.4019 38.6637Z" fill="black"/>
<path d="M4.04451 49.1969C3.58855 48.8567 3.26496 48.511 2.9371 48.0984C2.57858 47.9078 2.13033 47.6365 1.75563 47.2299C1.30435 46.7402 1.03984 46.1621 0.876316 45.5135C0.53681 45.0779 0.263993 44.5981 0.11755 44.0726V59.6424L30.6446 59.6492C30.1047 59.6205 29.594 59.5079 29.1091 59.3736C28.4424 59.5359 27.8132 59.6502 27.1805 59.6424C26.406 59.6328 25.7386 59.4448 25.0441 59.1563C24.1131 59.4008 23.1766 59.45 22.2479 59.2732C21.2889 59.0906 20.4126 58.6814 19.6153 58.105C18.4429 58.1738 17.3479 58.1424 16.3684 57.8163C15.4459 57.5092 14.7329 56.9827 14.1416 56.2815C13.9168 56.3028 13.7024 56.3175 13.499 56.3238C13.0155 56.3387 12.4888 56.3109 11.9788 56.1458C11.1149 55.8662 10.6026 55.3054 10.2726 54.7082C9.58673 54.6641 8.87426 54.5196 8.2053 54.1915C7.27895 53.7372 6.56462 52.9948 6.11724 51.9844C5.64497 51.7397 5.16516 51.4102 4.78062 50.9203C4.37138 50.399 4.15547 49.811 4.04451 49.1969Z" fill="black"/>
<path d="M32.9573 59.2187C32.36 59.4675 31.7778 59.6164 31.1659 59.6493L59.7774 59.6556L59.6458 45.2252C59.2385 46.2348 58.4931 47.0662 57.4193 47.6537C57.3779 47.8693 57.3148 48.0792 57.2305 48.282C56.9697 48.9098 56.5483 49.3725 56.1466 49.7007C55.758 50.0181 55.332 50.2549 54.9447 50.4289C54.7342 51.092 54.3711 51.7674 53.6769 52.3212C52.9113 52.932 51.8977 53.2626 50.6963 53.4782C50.3287 54.0369 49.8942 54.5395 49.3235 54.9227C48.7008 55.3408 48.0316 55.5406 47.3445 55.6353C46.8377 56.1384 46.2602 56.5585 45.5306 56.8196C44.8243 57.0723 44.0854 57.1353 43.312 57.1071C42.8243 57.5069 42.3003 57.8267 41.6708 58.0402C40.8429 58.3211 39.966 58.3694 39.019 58.3687C38.1358 58.9807 37.2187 59.3899 36.1476 59.5213C35.1205 59.6474 34.0751 59.5007 32.9573 59.2187Z" fill="black"/>
<path d="M4.02306 46.7828C3.14764 46.3361 2.65485 46.0847 2.41843 44.7584C1.10538 43.3142 1.58194 42.356 3.33504 40.5364C2.66662 39.2732 2.87908 38.2738 4.64962 36.7589C5.84135 35.7392 8.68841 35.4578 9.26044 35.6756C10.5534 34.6781 11.4143 34.2049 12.489 34.3158C12.6579 34.3332 12.8321 34.3651 13.0141 34.4116C13.379 34.5048 13.7754 34.6571 14.2233 34.8701C13.7467 35.2552 13.5541 35.7916 13.4742 36.3594C13.435 36.6379 13.4229 36.9239 13.4177 37.2033C13.4741 36.798 13.8994 35.8876 14.5106 35.2256C14.5528 35.1799 14.5958 35.1354 14.6397 35.0923C15.1536 34.588 15.7202 34.2298 16.3177 34.0208C18.0869 33.4022 20.126 34.0926 21.8617 36.1756C23.8196 34.7033 26.224 34.9927 27.3811 35.9235C27.9059 36.3456 28.1742 36.8996 28.028 37.481C28.6616 37.0895 29.1912 36.8049 29.6827 36.6161C30.2367 36.4034 30.7423 36.3124 31.2939 36.3276C31.4402 36.3316 31.5896 36.343 31.7441 36.3617C32.1463 36.4102 32.5823 36.5073 33.0832 36.6478C32.6562 37.219 32.4487 37.6645 32.3093 38.1661C32.2191 38.4904 32.1574 38.8383 32.0833 39.2587C32.176 39.0629 32.2576 38.882 32.3341 38.7125L32.3342 38.7123C32.4113 38.5414 32.4832 38.3822 32.5559 38.231C32.6153 38.1075 32.6752 37.9893 32.7391 37.8746C32.9216 37.5468 33.1359 37.2468 33.4596 36.9291C33.5076 36.8821 33.5579 36.8346 33.6109 36.7866C34.2282 36.2279 34.8724 35.8337 35.5463 35.6077C36.9647 35.1323 38.5147 35.4023 40.2216 36.4533C42.2722 34.1187 43.6371 34.1286 46.2213 35.0645C47.93 33.9472 48.938 34.4988 50.7488 35.7867C51.8046 35.638 52.4137 35.7692 52.8986 36.7978C52.9527 36.9125 53.0052 37.0384 53.0566 37.1762C53.1902 37.5343 53.3164 37.9735 53.443 38.5088C52.7275 38.4241 52.1785 38.4606 51.7366 38.5505C51.2619 38.647 50.9109 38.8052 50.6098 38.9408C50.3785 39.045 50.1767 39.136 49.971 39.1754C50.2327 39.1277 50.4674 39.082 50.6828 39.0401C51.115 38.9559 51.4697 38.8869 51.8105 38.8471C51.9191 38.8344 52.0263 38.8247 52.1341 38.8184C52.5165 38.7962 52.9068 38.8171 53.3965 38.9019C53.439 38.9092 53.4823 38.9171 53.5264 38.9254C54.1677 39.0466 54.8012 39.235 55.3858 39.4817C56.7655 40.0641 57.8723 40.9721 58.165 42.0919C58.5816 43.6861 58.3814 45.6998 55.7485 46.5638C56.1739 48.2284 54.3138 48.9521 53.5264 49.1748C53.2581 50.8008 52.7115 51.5394 49.6655 51.9524C48.8286 53.4902 48.15 53.9515 46.5546 54.0356C45.4959 55.2743 44.6632 55.5828 42.7215 55.3966C42.3066 55.803 41.9428 56.0878 41.5551 56.2852C41.3691 56.3799 41.1776 56.4545 40.9724 56.5127C40.4498 56.661 39.8377 56.7034 38.9995 56.7021C39.6843 56.1642 40.0955 55.6817 40.2953 54.96C40.3908 54.6152 40.438 54.216 40.4439 53.73C40.2732 54.2376 40.1151 54.6487 39.9347 55.0053C39.6918 55.4854 39.4086 55.8668 39.0002 56.2522C38.9345 56.3143 38.8655 56.3764 38.7929 56.4391C38.693 56.5253 38.5862 56.6127 38.4717 56.7021C37.2346 57.6685 36.2086 58.009 34.8129 57.8711C34.2241 57.8129 33.5695 57.6695 32.8054 57.452C31.3496 58.1982 30.5528 58.0737 29.139 57.6465C28.6648 57.771 28.2736 57.8627 27.9272 57.9173C27.762 57.9433 27.607 57.961 27.458 57.9697C26.8216 58.0072 26.2952 57.8831 25.5559 57.5631C26.1148 57.3601 26.7075 56.8935 27.0822 56.3017C27.1697 56.1637 27.2453 56.0188 27.3058 55.8688C27.2529 55.9183 27.2003 55.9681 27.1476 56.018L27.1476 56.018C27.0595 56.1014 26.9712 56.185 26.8813 56.2678C26.5501 56.5731 26.1968 56.869 25.7518 57.1104C25.6545 57.1632 25.5528 57.2134 25.4459 57.2605C25.3826 57.2884 25.3174 57.3153 25.2503 57.3409C23.8859 57.8628 22.6331 57.8286 21.4658 57.2758C21.0112 57.0606 20.5697 56.7668 20.1396 56.3965C17.3137 56.6306 16.0534 56.3614 14.9177 54.5078C14.1268 54.6204 13.5345 54.6781 13.0794 54.6561C12.8141 54.6433 12.5954 54.6033 12.4111 54.5314C11.963 54.3566 11.718 53.9927 11.5012 53.3689C11.8856 53.3941 12.3178 53.2088 12.6961 52.9535C13.047 52.7168 13.3516 52.4198 13.5289 52.1746C13.0998 52.4628 12.3642 52.9021 11.5243 53.0158C11.4616 53.0243 11.3983 53.031 11.3345 53.0356C10.7167 53.0808 10.1204 53.0598 9.58296 52.9265C8.59368 52.681 7.80385 52.0545 7.4459 50.758C6.20004 50.2515 5.69114 49.7956 5.61268 48.2304C4.83067 47.7835 4.52216 47.4399 4.02944 46.786L4.02306 46.7828Z" fill="black"/>
</mask>
<g mask="url(#mask0_1034_3381)">
<path d="M16.612 25.898L17.7229 34.8419C17.7229 34.8419 15.7219 35.5396 14.3898 35.7585C13.0284 35.9822 10.5289 36.0085 10.5289 36.0085C9.70921 27.1454 9.13048 18.3317 8.36255 9.31568L15.9375 7.31225L15.75 7.87475C17.4375 6.56225 19.6875 6.18725 19.6875 6.18725C19.6875 6.18725 19.2381 6.79346 19.3125 6.74975C22.4811 6.21527 24.2367 5.75262 27.3336 4.59375C28.0155 7.95839 28.2644 9.89352 28.4724 13.4265C23.4083 14.5994 20.5718 15.2152 15.5288 16.093L15.9732 19.9817C18.6609 19.5504 20.2647 19.2007 23.2783 18.5651C24.0052 20.4629 24.062 21.8061 23.9171 24.3981C21.0512 25.037 19.4602 25.3754 16.612 25.898Z" fill="#F5F5F5"/>
<path d="M49.125 27.3757C45.5625 29.0632 41.25 29.4382 41.25 29.4382C44.4375 23.6257 49.9433 16.1257 49.9433 8.67773L40.6875 9.00065L41.0625 9.56315C39 8.43815 36.375 9.00066 36.375 9.00066L36.75 9.56315L32.4375 10.6574C31.7098 13.0998 31.5078 14.8165 31.3125 18.1574C35.625 16.5007 40.6875 16.1257 40.6875 16.1257C40.6875 20.0632 31.722 28.1257 31.722 36.8982H33.3052L39.7771 36.4538L45.86 35.7316C45.86 35.7316 48.3229 35.0576 48.8598 33.3429C49.3968 31.6282 49.4778 27.6885 49.125 27.3757Z" fill="#F5F5F5"/>
<path d="M21.8616 36.1757C24.7076 34.0357 28.4966 35.6176 28.0279 37.4811C30.0577 36.2269 31.0203 36.0692 33.0832 36.6478C32.3801 37.5885 32.272 38.1882 32.0832 39.2588C32.5967 38.1745 32.7695 37.5483 33.6109 36.7867C35.5273 35.052 37.7036 34.9031 40.2216 36.4534C42.2722 34.1188 43.637 34.1287 46.2212 35.0646C47.93 33.9473 48.938 34.4989 50.7487 35.7868C52.2281 35.5785 52.8305 35.9196 53.443 38.5088C51.3677 38.2633 50.6935 39.037 49.971 39.1755C51.5706 38.8841 52.1587 38.667 53.5263 38.9255C55.6815 39.3329 57.7483 40.4977 58.1649 42.092C58.5816 43.6862 58.3813 45.6999 55.7484 46.5639C56.1738 48.2285 54.3138 48.9522 53.5263 49.1749C53.2581 50.8008 52.7115 51.5394 49.6655 51.9525C48.8286 53.4902 48.15 53.9516 46.5545 54.0357C45.4959 55.2744 44.6631 55.5829 42.7214 55.3967C41.6008 56.4943 40.8534 56.705 38.9995 56.7022C40.0114 55.9074 40.4258 55.2334 40.4438 53.7301C39.9556 55.1827 39.5694 55.8447 38.4717 56.7022C36.7126 58.0762 35.3805 58.185 32.8054 57.4521C31.3496 58.1983 30.5528 58.0737 29.139 57.6466C27.4732 58.0842 26.8314 58.1153 25.5558 57.5632C26.2452 57.3128 26.9859 56.6614 27.3057 55.8689C26.726 56.4123 26.1725 56.9883 25.2503 57.341C23.3546 58.0661 21.6743 57.7177 20.1395 56.3966C17.3136 56.6307 16.0534 56.3615 14.9176 54.5079C12.5452 54.8456 11.9602 54.6896 11.5012 53.369C12.2421 53.4176 13.1604 52.6842 13.5288 52.1747C13.0677 52.4844 12.2526 52.9687 11.3345 53.0357C9.57925 53.1639 7.99826 52.759 7.44586 50.7581C6.2 50.2516 5.6911 49.7957 5.61264 48.2305C4.83063 47.7835 4.52212 47.44 4.0294 46.7861L4.02302 46.7828C3.1476 46.3362 2.65481 46.0848 2.41839 44.7585C1.10534 43.3143 1.5819 42.3561 3.335 40.5365C2.66658 39.2733 2.87904 38.2739 4.64958 36.759C5.84131 35.7393 8.68837 35.4579 9.26041 35.6757C11.1642 34.2069 12.1311 33.875 14.2232 34.8702C13.5129 35.4442 13.4335 36.3544 13.4177 37.2034C13.4779 36.7701 13.9599 35.7596 14.6397 35.0924C16.675 33.0947 19.5399 33.3893 21.8616 36.1757Z" fill="#F5F5F5"/>
</g>
</svg>
