<svg width="30" height="30" viewBox="0 0 40 40" fill="none" xmlns="http://www.w3.org/2000/svg">
    <path d="M14.8187 18L0.659206 3.84206C-0.219734 2.96311 -0.219734 1.53808 0.659206 0.659206C1.53815 -0.219735 2.96318 -0.219735 3.84205 0.659206L18 14.8186L32.1579 0.659206C33.0369 -0.219735 34.4619 -0.219735 35.3408 0.659206C36.2197 1.53815 36.2197 2.96318 35.3408 3.84206L21.1814 18L35.3408 32.1579C36.2197 33.0369 36.2197 34.4619 35.3408 35.3408C34.4619 36.2197 33.0368 36.2197 32.1579 35.3408L18 21.1813L3.84212 35.3408C2.96318 36.2197 1.53815 36.2197 0.659275 35.3408C-0.219666 34.4619 -0.219666 33.0368 0.659275 32.1579L14.8187 18Z" fill="#151515"/>
</svg>   