<svg width="30" height="5" viewBox="0 0 30 5" fill="none" xmlns="http://www.w3.org/2000/svg">
<mask id="path-1-inside-1_1280_1032" fill="white">
<path d="M28.125 0.269531L1.875 0.269531C0.839466 0.269531 0 1.109 0 2.14453C0 3.18007 0.839466 4.01953 1.875 4.01953L28.125 4.01953C29.1605 4.01953 30 3.18007 30 2.14453C30 1.109 29.1605 0.269531 28.125 0.269531Z"/>
</mask>
<path d="M1.875 5.26953L28.125 5.26953V-4.73047L1.875 -4.73047L1.875 5.26953ZM28.125 -0.980469L1.875 -0.980469L1.875 9.01953L28.125 9.01953V-0.980469ZM1.875 -0.980469C3.60089 -0.980469 5 0.418642 5 2.14453H-5C-5 5.94149 -1.92196 9.01953 1.875 9.01953L1.875 -0.980469ZM28.125 9.01953C31.922 9.01953 35 5.94149 35 2.14453H25C25 0.418641 26.3991 -0.980469 28.125 -0.980469V9.01953ZM28.125 5.26953C26.3991 5.26953 25 3.87042 25 2.14453H35C35 -1.65243 31.922 -4.73047 28.125 -4.73047V5.26953ZM1.875 -4.73047C-1.92196 -4.73047 -5 -1.65243 -5 2.14453H5C5 3.87042 3.60089 5.26953 1.875 5.26953L1.875 -4.73047Z" fill="#151515" mask="url(#path-1-inside-1_1280_1032)"/>
</svg>
